<?xml version="1.0" encoding="UTF-8" standalone="no"?>
<!DOCTYPE svg PUBLIC "-//W3C//DTD SVG 1.1//EN" "http://www.w3.org/Graphics/SVG/1.1/DTD/svg11.dtd">
<svg width="100%" height="100%" viewBox="0 0 354 355" version="1.1" xmlns="http://www.w3.org/2000/svg" xmlns:xlink="http://www.w3.org/1999/xlink" xml:space="preserve" xmlns:serif="http://www.serif.com/" style="fill-rule:evenodd;clip-rule:evenodd;stroke-linejoin:round;stroke-miterlimit:2;">
    <g id="Page-1" serif:id="Page 1" transform="matrix(0.183955,0,0,0.328042,0,0)">
        <rect x="0" y="0" width="1920" height="1080" style="fill:none;"/>
        <clipPath id="_clip1">
            <rect x="0" y="0" width="1920" height="1080"/>
        </clipPath>
        <g clip-path="url(#_clip1)">
            <g id="Calque-1" serif:id="Calque 1" transform="matrix(22.650528,0,0,12.70164,-489.37887,-353.658879)">
                <g>
                    <g transform="matrix(0,1,1,0,22.3205,112.8812)">
                        <path d="M0.715,-0.715C0.316,-0.715 -0.008,-0.395 -0.008,-0C-0.008,0.395 0.316,0.715 0.715,0.715C1.115,0.715 1.438,0.395 1.438,-0C1.438,-0.395 1.115,-0.715 0.715,-0.715" style="fill-rule:nonzero;"/>
                    </g>
                    <g transform="matrix(0,1,1,0,22.3205,84.5418)">
                        <path d="M0.715,-0.715C0.316,-0.715 -0.008,-0.395 -0.008,-0C-0.008,0.395 0.316,0.715 0.715,0.715C1.115,0.715 1.438,0.395 1.438,-0C1.438,-0.395 1.115,-0.715 0.715,-0.715" style="fill-rule:nonzero;"/>
                    </g>
                    <g transform="matrix(0,1,1,0,22.3205,56.202)">
                        <path d="M0.715,-0.715C0.316,-0.715 -0.008,-0.395 -0.008,-0C-0.008,0.395 0.316,0.715 0.715,0.715C1.115,0.715 1.438,0.395 1.438,-0C1.438,-0.395 1.115,-0.715 0.715,-0.715" style="fill-rule:nonzero;"/>
                    </g>
                    <g transform="matrix(0,1,1,0,22.3205,27.8626)">
                        <path d="M0.715,-0.715C0.316,-0.715 -0.008,-0.395 -0.008,-0C-0.008,0.395 0.316,0.715 0.715,0.715C1.115,0.715 1.438,0.395 1.438,-0C1.438,-0.395 1.115,-0.715 0.715,-0.715" style="fill-rule:nonzero;"/>
                    </g>
                    <g transform="matrix(0,1,1,0,50.6774,112.8812)">
                        <path d="M0.715,-0.715C0.316,-0.715 -0.008,-0.395 -0.008,-0C-0.008,0.395 0.316,0.715 0.715,0.715C1.115,0.715 1.438,0.395 1.438,-0C1.438,-0.395 1.115,-0.715 0.715,-0.715" style="fill-rule:nonzero;"/>
                    </g>
                    <g transform="matrix(0,1,1,0,50.6774,84.5418)">
                        <path d="M0.715,-0.715C0.316,-0.715 -0.008,-0.395 -0.008,-0C-0.008,0.395 0.316,0.715 0.715,0.715C1.115,0.715 1.438,0.395 1.438,-0C1.438,-0.395 1.115,-0.715 0.715,-0.715" style="fill-rule:nonzero;"/>
                    </g>
                    <g transform="matrix(0,1,1,0,50.6774,56.202)">
                        <path d="M0.715,-0.715C0.316,-0.715 -0.008,-0.395 -0.008,-0C-0.008,0.395 0.316,0.715 0.715,0.715C1.115,0.715 1.438,0.395 1.438,-0C1.438,-0.395 1.115,-0.715 0.715,-0.715" style="fill-rule:nonzero;"/>
                    </g>
                    <g transform="matrix(0,1,1,0,50.6774,27.8626)">
                        <path d="M0.715,-0.715C0.316,-0.715 -0.008,-0.395 -0.008,-0C-0.008,0.395 0.316,0.715 0.715,0.715C1.115,0.715 1.438,0.395 1.438,-0C1.438,-0.395 1.115,-0.715 0.715,-0.715" style="fill-rule:nonzero;"/>
                    </g>
                    <g transform="matrix(0,1,1,0,79.0343,112.8812)">
                        <path d="M0.715,-0.715C0.316,-0.715 -0.008,-0.395 -0.008,-0C-0.008,0.395 0.316,0.715 0.715,0.715C1.115,0.715 1.438,0.395 1.438,-0C1.438,-0.395 1.115,-0.715 0.715,-0.715" style="fill-rule:nonzero;"/>
                    </g>
                    <g transform="matrix(0,1,1,0,79.0343,84.5418)">
                        <path d="M0.715,-0.715C0.316,-0.715 -0.008,-0.395 -0.008,-0C-0.008,0.395 0.316,0.715 0.715,0.715C1.115,0.715 1.438,0.395 1.438,-0C1.438,-0.395 1.115,-0.715 0.715,-0.715" style="fill-rule:nonzero;"/>
                    </g>
                    <g transform="matrix(0,1,1,0,79.0343,56.202)">
                        <path d="M0.715,-0.715C0.316,-0.715 -0.008,-0.395 -0.008,-0C-0.008,0.395 0.316,0.715 0.715,0.715C1.115,0.715 1.438,0.395 1.438,-0C1.438,-0.395 1.115,-0.715 0.715,-0.715" style="fill-rule:nonzero;"/>
                    </g>
                    <g transform="matrix(0,1,1,0,79.0343,27.8626)">
                        <path d="M0.715,-0.715C0.316,-0.715 -0.008,-0.395 -0.008,-0C-0.008,0.395 0.316,0.715 0.715,0.715C1.115,0.715 1.438,0.395 1.438,-0C1.438,-0.395 1.115,-0.715 0.715,-0.715" style="fill-rule:nonzero;"/>
                    </g>
                    <g transform="matrix(0,1,1,0,107.3913,112.8812)">
                        <path d="M0.715,-0.715C0.316,-0.715 -0.008,-0.395 -0.008,-0C-0.008,0.395 0.316,0.715 0.715,0.715C1.115,0.715 1.438,0.395 1.438,-0C1.438,-0.395 1.115,-0.715 0.715,-0.715" style="fill-rule:nonzero;"/>
                    </g>
                    <g transform="matrix(0,1,1,0,107.3913,84.5418)">
                        <path d="M0.715,-0.715C0.316,-0.715 -0.008,-0.395 -0.008,-0C-0.008,0.395 0.316,0.715 0.715,0.715C1.115,0.715 1.438,0.395 1.438,-0C1.438,-0.395 1.115,-0.715 0.715,-0.715" style="fill-rule:nonzero;"/>
                    </g>
                    <g transform="matrix(0,1,1,0,107.3913,56.202)">
                        <path d="M0.715,-0.715C0.316,-0.715 -0.008,-0.395 -0.008,-0C-0.008,0.395 0.316,0.715 0.715,0.715C1.115,0.715 1.438,0.395 1.438,-0C1.438,-0.395 1.115,-0.715 0.715,-0.715" style="fill-rule:nonzero;"/>
                    </g>
                    <g transform="matrix(0,1,1,0,107.3913,27.8626)">
                        <path d="M0.715,-0.715C0.316,-0.715 -0.008,-0.395 -0.008,-0C-0.008,0.395 0.316,0.715 0.715,0.715C1.115,0.715 1.438,0.395 1.438,-0C1.438,-0.395 1.115,-0.715 0.715,-0.715" style="fill-rule:nonzero;"/>
                    </g>
                </g>
            </g>
        </g>
    </g>
</svg>
